<?xml version="1.0" encoding="UTF-8"?>
<svg xmlns="http://www.w3.org/2000/svg" xmlns:xlink="http://www.w3.org/1999/xlink" width="375pt" height="374.999991pt" viewBox="0 0 375 374.999991" version="1.2">
<defs>
<clipPath id="clip1">
  <path d="M 142 37.5 L 367.347656 37.5 L 367.347656 276.613281 L 142 276.613281 Z M 142 37.5 "/>
</clipPath>
<clipPath id="clip2">
  <path d="M 7.621094 88.433594 L 233 88.433594 L 233 327.546875 L 7.621094 327.546875 Z M 7.621094 88.433594 "/>
</clipPath>
</defs>
<g id="surface1">
<g clip-path="url(#clip1)" clip-rule="nonzero">
<path style=" stroke:none;fill-rule:nonzero;fill:rgb(96.469116%,74.119568%,10.978699%);fill-opacity:1;" d="M 142.046875 276.613281 L 231.875 276.613281 L 231.875 221.265625 L 257.480469 221.265625 C 324.054688 221.265625 367.101562 185.148438 367.101562 129.382812 C 367.101562 73.617188 324.054688 37.5 257.480469 37.5 L 142.046875 37.5 Z M 252.636719 109.871094 C 262.878906 109.871094 276.582031 111.945312 276.582031 129.382812 C 276.582031 146.816406 262.878906 148.894531 252.636719 148.894531 L 231.875 148.894531 L 231.875 109.871094 Z M 252.636719 109.871094 "/>
</g>
<g clip-path="url(#clip2)" clip-rule="nonzero">
<path style=" stroke:none;fill-rule:nonzero;fill:rgb(96.469116%,74.119568%,10.978699%);fill-opacity:1;" d="M 232.917969 88.433594 L 143.089844 88.433594 L 143.089844 143.785156 L 117.484375 143.785156 C 50.910156 143.785156 7.863281 179.902344 7.863281 235.667969 C 7.863281 291.433594 50.910156 327.546875 117.484375 327.546875 L 232.917969 327.546875 Z M 122.332031 255.175781 C 112.085938 255.175781 98.386719 253.101562 98.386719 235.667969 C 98.386719 218.230469 112.085938 216.15625 122.332031 216.15625 L 143.089844 216.15625 L 143.089844 255.175781 Z M 122.332031 255.175781 "/>
</g>
<path style=" stroke:none;fill-rule:nonzero;fill:rgb(100%,100%,100%);fill-opacity:1;" d="M 120.960938 208.484375 C 119.914062 208.484375 118.871094 208.539062 117.832031 208.640625 C 116.792969 208.742188 115.757812 208.894531 114.734375 209.097656 C 113.707031 209.304688 112.695312 209.558594 111.695312 209.859375 C 110.695312 210.164062 109.710938 210.515625 108.746094 210.914062 C 107.78125 211.316406 106.835938 211.761719 105.914062 212.253906 C 104.992188 212.746094 104.097656 213.285156 103.226562 213.867188 C 102.359375 214.445312 101.519531 215.070312 100.710938 215.730469 C 99.902344 216.394531 99.128906 217.097656 98.390625 217.835938 C 97.652344 218.574219 96.949219 219.347656 96.285156 220.15625 C 95.625 220.964844 95 221.804688 94.421875 222.671875 C 93.839844 223.542969 93.300781 224.4375 92.808594 225.359375 C 92.316406 226.28125 91.871094 227.226562 91.46875 228.191406 C 91.070312 229.15625 90.71875 230.140625 90.414062 231.140625 C 90.113281 232.140625 89.859375 233.152344 89.652344 234.179688 C 89.449219 235.203125 89.296875 236.238281 89.195312 237.277344 C 89.09375 238.316406 89.039062 239.359375 89.039062 240.40625 C 89.039062 241.453125 89.09375 242.496094 89.195312 243.535156 C 89.296875 244.574219 89.449219 245.609375 89.652344 246.632812 C 89.859375 247.660156 90.113281 248.671875 90.414062 249.671875 C 90.71875 250.671875 91.070312 251.65625 91.46875 252.621094 C 91.871094 253.585938 92.316406 254.53125 92.808594 255.453125 C 93.300781 256.375 93.839844 257.269531 94.421875 258.140625 C 95 259.007812 95.625 259.847656 96.285156 260.65625 C 96.949219 261.464844 97.652344 262.238281 98.390625 262.976562 C 99.128906 263.714844 99.902344 264.417969 100.710938 265.082031 C 101.519531 265.746094 102.359375 266.367188 103.226562 266.945312 C 104.097656 267.527344 104.992188 268.066406 105.914062 268.558594 C 106.835938 269.050781 107.78125 269.496094 108.746094 269.898438 C 109.710938 270.296875 110.695312 270.648438 111.695312 270.953125 C 112.695312 271.253906 113.707031 271.507812 114.734375 271.714844 C 115.757812 271.917969 116.792969 272.070312 117.832031 272.171875 C 118.871094 272.277344 119.914062 272.328125 120.960938 272.328125 C 122.007812 272.328125 123.050781 272.277344 124.089844 272.171875 C 125.128906 272.070312 126.164062 271.917969 127.1875 271.714844 C 128.214844 271.507812 129.226562 271.253906 130.226562 270.953125 C 131.226562 270.648438 132.210938 270.296875 133.175781 269.898438 C 134.140625 269.496094 135.085938 269.050781 136.007812 268.558594 C 136.929688 268.066406 137.824219 267.527344 138.695312 266.945312 C 139.5625 266.367188 140.402344 265.746094 141.210938 265.082031 C 142.019531 264.417969 142.792969 263.714844 143.53125 262.976562 C 144.269531 262.238281 144.972656 261.464844 145.636719 260.65625 C 146.300781 259.847656 146.921875 259.007812 147.5 258.140625 C 148.082031 257.269531 148.621094 256.375 149.113281 255.453125 C 149.605469 254.53125 150.050781 253.585938 150.453125 252.621094 C 150.851562 251.65625 151.203125 250.671875 151.507812 249.671875 C 151.808594 248.671875 152.0625 247.660156 152.269531 246.632812 C 152.472656 245.609375 152.625 244.574219 152.726562 243.535156 C 152.832031 242.496094 152.882812 241.453125 152.882812 240.40625 C 152.882812 239.359375 152.832031 238.316406 152.726562 237.277344 C 152.625 236.238281 152.472656 235.203125 152.269531 234.179688 C 152.0625 233.152344 151.808594 232.140625 151.507812 231.140625 C 151.203125 230.140625 150.851562 229.15625 150.453125 228.191406 C 150.050781 227.226562 149.605469 226.28125 149.113281 225.359375 C 148.621094 224.4375 148.082031 223.542969 147.5 222.671875 C 146.921875 221.804688 146.300781 220.964844 145.636719 220.15625 C 144.972656 219.347656 144.269531 218.574219 143.53125 217.835938 C 142.792969 217.097656 142.019531 216.394531 141.210938 215.730469 C 140.402344 215.070312 139.5625 214.445312 138.695312 213.867188 C 137.824219 213.285156 136.929688 212.746094 136.007812 212.253906 C 135.085938 211.761719 134.140625 211.316406 133.175781 210.914062 C 132.210938 210.515625 131.226562 210.164062 130.226562 209.859375 C 129.226562 209.558594 128.214844 209.304688 127.1875 209.097656 C 126.164062 208.894531 125.128906 208.742188 124.089844 208.640625 C 123.050781 208.539062 122.007812 208.484375 120.960938 208.484375 Z M 120.960938 208.484375 "/>
<path style=" stroke:none;fill-rule:nonzero;fill:rgb(100%,100%,100%);fill-opacity:1;" d="M 254.039062 92.746094 C 252.992188 92.746094 251.949219 92.796875 250.910156 92.898438 C 249.871094 93.003906 248.835938 93.15625 247.8125 93.359375 C 246.785156 93.5625 245.773438 93.816406 244.773438 94.121094 C 243.773438 94.425781 242.789062 94.777344 241.824219 95.175781 C 240.859375 95.574219 239.914062 96.023438 238.992188 96.515625 C 238.070312 97.007812 237.175781 97.542969 236.304688 98.125 C 235.4375 98.707031 234.597656 99.328125 233.789062 99.992188 C 232.980469 100.65625 232.207031 101.355469 231.46875 102.09375 C 230.730469 102.835938 230.027344 103.609375 229.363281 104.417969 C 228.699219 105.222656 228.078125 106.0625 227.5 106.933594 C 226.917969 107.800781 226.378906 108.695312 225.886719 109.621094 C 225.394531 110.542969 224.949219 111.484375 224.546875 112.449219 C 224.148438 113.417969 223.796875 114.398438 223.492188 115.398438 C 223.191406 116.402344 222.9375 117.414062 222.730469 118.4375 C 222.527344 119.464844 222.375 120.496094 222.273438 121.539062 C 222.167969 122.578125 222.117188 123.621094 222.117188 124.667969 C 222.117188 125.710938 222.167969 126.753906 222.273438 127.796875 C 222.375 128.835938 222.527344 129.867188 222.730469 130.894531 C 222.9375 131.917969 223.191406 132.933594 223.492188 133.933594 C 223.796875 134.933594 224.148438 135.914062 224.546875 136.882812 C 224.949219 137.847656 225.394531 138.792969 225.886719 139.714844 C 226.378906 140.636719 226.917969 141.53125 227.5 142.398438 C 228.078125 143.269531 228.699219 144.109375 229.363281 144.917969 C 230.027344 145.722656 230.730469 146.5 231.46875 147.238281 C 232.207031 147.976562 232.980469 148.679688 233.789062 149.339844 C 234.597656 150.003906 235.4375 150.625 236.304688 151.207031 C 237.175781 151.789062 238.070312 152.324219 238.992188 152.816406 C 239.914062 153.308594 240.859375 153.757812 241.824219 154.15625 C 242.789062 154.558594 243.773438 154.910156 244.773438 155.210938 C 245.773438 155.515625 246.785156 155.769531 247.8125 155.972656 C 248.835938 156.175781 249.871094 156.332031 250.910156 156.433594 C 251.949219 156.535156 252.992188 156.585938 254.039062 156.585938 C 255.085938 156.585938 256.128906 156.535156 257.167969 156.433594 C 258.207031 156.332031 259.242188 156.175781 260.265625 155.972656 C 261.292969 155.769531 262.304688 155.515625 263.304688 155.210938 C 264.304688 154.910156 265.289062 154.558594 266.253906 154.15625 C 267.21875 153.757812 268.164062 153.308594 269.085938 152.816406 C 270.007812 152.324219 270.902344 151.789062 271.773438 151.207031 C 272.640625 150.625 273.480469 150.003906 274.289062 149.339844 C 275.097656 148.679688 275.871094 147.976562 276.609375 147.238281 C 277.347656 146.5 278.050781 145.722656 278.714844 144.917969 C 279.375 144.109375 280 143.269531 280.578125 142.398438 C 281.160156 141.53125 281.699219 140.636719 282.191406 139.714844 C 282.683594 138.792969 283.128906 137.847656 283.53125 136.882812 C 283.929688 135.914062 284.28125 134.933594 284.585938 133.933594 C 284.886719 132.933594 285.140625 131.917969 285.347656 130.894531 C 285.550781 129.867188 285.703125 128.835938 285.804688 127.796875 C 285.90625 126.753906 285.960938 125.710938 285.960938 124.667969 C 285.960938 123.621094 285.90625 122.578125 285.804688 121.539062 C 285.703125 120.496094 285.550781 119.464844 285.347656 118.4375 C 285.140625 117.414062 284.886719 116.402344 284.585938 115.398438 C 284.28125 114.398438 283.929688 113.417969 283.53125 112.449219 C 283.128906 111.484375 282.683594 110.542969 282.191406 109.621094 C 281.699219 108.695312 281.160156 107.800781 280.578125 106.933594 C 280 106.0625 279.375 105.222656 278.714844 104.417969 C 278.050781 103.609375 277.347656 102.835938 276.609375 102.09375 C 275.871094 101.355469 275.097656 100.65625 274.289062 99.992188 C 273.480469 99.328125 272.640625 98.707031 271.773438 98.125 C 270.902344 97.542969 270.007812 97.007812 269.085938 96.515625 C 268.164062 96.023438 267.21875 95.574219 266.253906 95.175781 C 265.289062 94.777344 264.304688 94.425781 263.304688 94.121094 C 262.304688 93.816406 261.292969 93.5625 260.265625 93.359375 C 259.242188 93.15625 258.207031 93.003906 257.167969 92.898438 C 256.128906 92.796875 255.085938 92.746094 254.039062 92.746094 Z M 254.039062 92.746094 "/>
</g>
</svg>
